<?xml version="1.0" encoding="UTF-8"?>
<!DOCTYPE svg PUBLIC "-//W3C//DTD SVG 1.0//EN" "http://www.w3.org/TR/2001/REC-SVG-20010904/DTD/svg10.dtd">
<!-- Creator: CorelDRAW 2018 -->
<svg xmlns="http://www.w3.org/2000/svg" xml:space="preserve" width="69px" height="69px" version="1.0" style="shape-rendering:geometricPrecision; text-rendering:geometricPrecision; image-rendering:optimizeQuality; fill-rule:evenodd; clip-rule:evenodd"
viewBox="0 0 14.11 14.11"
 xmlns:xlink="http://www.w3.org/1999/xlink">
 <defs>
  <style type="text/css">
   <![CDATA[
    .fil0 {fill:#005EFF}
   ]]>
  </style>
 </defs>
 <g id="Layer_x0020_1">
  <metadata id="CorelCorpID_0Corel-Layer"/>
  <path class="fil0" d="M5.09 2.24l0.84 -0.84c0.93,-0.93 2.16,-1.4 3.39,-1.4 1.23,0 2.46,0.47 3.39,1.4 0.94,0.93 1.4,2.16 1.4,3.39l0 0c0,1.23 -0.46,2.46 -1.4,3.39l-0.84 0.85 -1.2 -1.2 0.84 -0.85c0.61,-0.6 0.91,-1.39 0.91,-2.19 0,-0.79 -0.3,-1.59 -0.91,-2.19 -0.6,-0.6 -1.39,-0.9 -2.19,-0.9 -0.79,0 -1.59,0.3 -2.19,0.9l-0.84 0.84 -1.2 -1.2zm-1.08 6.66l4.89 -4.89 1.2 1.21 -4.88 4.88 -1.21 -1.2zm-2.61 -2.97l0.84 -0.84 1.2 1.2 -0.84 0.84c-0.6,0.6 -0.9,1.4 -0.91,2.19 0.01,0.8 0.31,1.59 0.91,2.19 0.6,0.61 1.4,0.91 2.19,0.91 0.8,0 1.59,-0.3 2.19,-0.91l0.85 -0.84 1.2 1.2 -0.85 0.84c-0.93,0.94 -2.16,1.4 -3.39,1.4l0 0c-1.23,0 -2.46,-0.46 -3.39,-1.4 -0.93,-0.93 -1.4,-2.16 -1.4,-3.39l0 0c0,-1.23 0.47,-2.46 1.4,-3.39z"/>
 </g>
</svg>
