<?xml version="1.0" encoding="UTF-8"?>
<!DOCTYPE svg PUBLIC "-//W3C//DTD SVG 1.0//EN" "http://www.w3.org/TR/2001/REC-SVG-20010904/DTD/svg10.dtd">
<!-- Creator: CorelDRAW 2018 -->
<svg xmlns="http://www.w3.org/2000/svg" xml:space="preserve" width="134px" height="24px" version="1.0" style="shape-rendering:geometricPrecision; text-rendering:geometricPrecision; image-rendering:optimizeQuality; fill-rule:evenodd; clip-rule:evenodd"
viewBox="0 0 33.22 5.93"
 xmlns:xlink="http://www.w3.org/1999/xlink">
 <defs>
  <style type="text/css">
   <![CDATA[
    .fil0 {fill:#005EFF}
    .fil2 {fill:#272536;fill-rule:nonzero}
    .fil1 {fill:url(#id0);fill-rule:nonzero}
   ]]>
  </style>
  <linearGradient id="id0" gradientUnits="objectBoundingBox" x1="49.4927%" y1="0%" x2="50.5051%" y2="100.158%">
   <stop offset="0" style="stop-opacity:1; stop-color:#FEFEFE"/>
   <stop offset="0.788235" style="stop-opacity:1; stop-color:#DFDDED"/>
   <stop offset="1" style="stop-opacity:1; stop-color:#C0BCDB"/>
  </linearGradient>
 </defs>
 <g id="Layer_x0020_1">
  <metadata id="CorelCorpID_0Corel-Layer"/>
  <g id="_739403344">
   <path class="fil0" d="M33.05 0.93c0.03,0.12 0.06,0.27 0.09,0.46 0.02,0.19 0.04,0.37 0.05,0.55 0.01,0.18 0.02,0.34 0.02,0.5 0.01,0.15 0.01,0.28 0.01,0.39l0 0.14c0,0.92 -0.05,1.61 -0.17,2.05 -0.05,0.17 -0.14,0.33 -0.28,0.46 -0.13,0.14 -0.29,0.23 -0.48,0.28 -0.19,0.05 -0.56,0.09 -1.11,0.12 -0.54,0.02 -8.11,0.05 -8.56,0.05l-0.68 0c-1.76,0 -2.86,-0.06 -3.29,-0.17 -0.4,-0.11 -0.65,-0.36 -0.76,-0.74 -0.05,-0.2 -0.09,-0.47 -0.11,-0.81 -0.03,-0.35 -0.05,-0.64 -0.06,-0.87l0 -0.37c0,-0.92 0.06,-1.6 0.17,-2.04 0.06,-0.19 0.15,-0.35 0.28,-0.48 0.13,-0.14 0.29,-0.23 0.48,-0.28 0.2,-0.05 0.57,-0.09 1.11,-0.12 0.55,-0.02 1.05,-0.04 1.5,-0.05l0.68 0c1.76,0 9.92,0.05 10.35,0.17 0.19,0.05 0.35,0.14 0.48,0.28 0.14,0.13 0.23,0.29 0.28,0.48z"/>
   <polygon class="fil1" points="21.74,4.61 20.53,3.03 20.53,4.61 19.65,4.61 19.65,1.02 20.53,1.02 20.53,2.6 21.73,1.02 22.75,1.02 21.36,2.78 22.8,4.61 "/>
   <path id="1" class="fil1" d="M23.96 2.23c0.11,-0.15 0.23,-0.28 0.39,-0.37 0.15,-0.09 0.32,-0.13 0.51,-0.13l0 0.92 -0.24 0c-0.22,0 -0.38,0.05 -0.49,0.14 -0.11,0.1 -0.17,0.26 -0.17,0.5l0 1.32 -0.87 0 0 -2.85 0.87 0 0 0.47z"/>
   <path id="2" class="fil1" d="M27.97 1.76l0 2.85 -0.88 0 0 -0.39c-0.09,0.13 -0.21,0.23 -0.36,0.31 -0.15,0.07 -0.32,0.11 -0.5,0.11 -0.22,0 -0.41,-0.05 -0.58,-0.14 -0.17,-0.1 -0.3,-0.24 -0.39,-0.43 -0.09,-0.18 -0.14,-0.4 -0.14,-0.65l0 -1.66 0.87 0 0 1.55c0,0.19 0.05,0.34 0.15,0.44 0.1,0.11 0.23,0.16 0.4,0.16 0.17,0 0.3,-0.05 0.4,-0.16 0.1,-0.1 0.15,-0.25 0.15,-0.44l0 -1.55 0.88 0z"/>
   <polygon id="3" class="fil1" points="29.28,3.89 30.52,3.89 30.52,4.61 28.31,4.61 28.31,3.92 29.49,2.48 28.32,2.48 28.32,1.76 30.49,1.76 30.49,2.45 "/>
   <path class="fil2" d="M1.55 4.82c-0.29,0 -0.55,-0.05 -0.78,-0.14 -0.23,-0.09 -0.42,-0.23 -0.55,-0.42 -0.14,-0.18 -0.21,-0.4 -0.22,-0.66l1.03 0c0.01,0.14 0.06,0.26 0.15,0.33 0.09,0.08 0.2,0.12 0.34,0.12 0.14,0 0.25,-0.03 0.34,-0.1 0.08,-0.07 0.12,-0.16 0.12,-0.27 0,-0.1 -0.03,-0.18 -0.1,-0.25 -0.06,-0.06 -0.14,-0.11 -0.24,-0.16 -0.1,-0.04 -0.23,-0.08 -0.41,-0.14 -0.26,-0.08 -0.46,-0.15 -0.63,-0.23 -0.16,-0.08 -0.3,-0.2 -0.41,-0.35 -0.12,-0.16 -0.18,-0.36 -0.18,-0.61 0,-0.37 0.13,-0.66 0.4,-0.87 0.27,-0.2 0.62,-0.31 1.05,-0.31 0.43,0 0.79,0.11 1.05,0.31 0.27,0.21 0.41,0.5 0.43,0.88l-1.04 0c-0.01,-0.13 -0.06,-0.23 -0.14,-0.3 -0.09,-0.08 -0.2,-0.11 -0.34,-0.11 -0.11,0 -0.21,0.03 -0.28,0.09 -0.07,0.06 -0.11,0.15 -0.11,0.27 0,0.12 0.06,0.22 0.18,0.3 0.12,0.07 0.31,0.14 0.57,0.23 0.25,0.08 0.46,0.17 0.62,0.25 0.16,0.08 0.3,0.19 0.42,0.34 0.11,0.15 0.17,0.34 0.17,0.58 0,0.23 -0.05,0.43 -0.17,0.62 -0.11,0.18 -0.28,0.33 -0.5,0.44 -0.22,0.11 -0.48,0.16 -0.77,0.16z"/>
   <path id="1" class="fil2" d="M7.46 1.6c0.4,0 0.71,0.12 0.94,0.35 0.23,0.24 0.35,0.57 0.35,0.99l0 1.84 -0.96 0 0 -1.71c0,-0.2 -0.06,-0.36 -0.17,-0.47 -0.1,-0.11 -0.25,-0.17 -0.44,-0.17 -0.19,0 -0.33,0.06 -0.44,0.17 -0.11,0.11 -0.16,0.27 -0.16,0.47l0 1.71 -0.96 0 0 -1.71c0,-0.2 -0.06,-0.36 -0.16,-0.47 -0.11,-0.11 -0.26,-0.17 -0.45,-0.17 -0.19,0 -0.33,0.06 -0.44,0.17 -0.11,0.11 -0.16,0.27 -0.16,0.47l0 1.71 -0.97 0 0 -3.15 0.97 0 0 0.4c0.1,-0.14 0.22,-0.24 0.38,-0.32 0.16,-0.07 0.34,-0.11 0.54,-0.11 0.24,0 0.45,0.05 0.63,0.15 0.19,0.1 0.34,0.25 0.44,0.43 0.11,-0.17 0.26,-0.31 0.45,-0.42 0.19,-0.11 0.39,-0.16 0.61,-0.16z"/>
   <path id="2" class="fil2" d="M9.77 1.3c-0.17,0 -0.31,-0.05 -0.42,-0.15 -0.11,-0.1 -0.16,-0.22 -0.16,-0.37 0,-0.15 0.05,-0.27 0.16,-0.37 0.11,-0.1 0.25,-0.15 0.42,-0.15 0.16,0 0.3,0.05 0.41,0.15 0.1,0.1 0.16,0.22 0.16,0.37 0,0.15 -0.06,0.27 -0.16,0.37 -0.11,0.1 -0.25,0.15 -0.41,0.15zm0.48 0.33l0 3.15 -0.97 0 0 -3.15 0.97 0z"/>
   <path id="3" class="fil2" d="M12.56 3.96l0 0.82 -0.49 0c-0.35,0 -0.62,-0.08 -0.82,-0.25 -0.2,-0.18 -0.29,-0.46 -0.29,-0.84l0 -1.26 -0.39 0 0 -0.8 0.39 0 0 -0.77 0.96 0 0 0.77 0.63 0 0 0.8 -0.63 0 0 1.27c0,0.09 0.02,0.16 0.07,0.2 0.04,0.04 0.12,0.06 0.22,0.06l0.35 0z"/>
   <path id="4" class="fil2" d="M14.89 1.6c0.36,0 0.65,0.12 0.87,0.36 0.22,0.24 0.33,0.56 0.33,0.98l0 1.84 -0.96 0 0 -1.71c0,-0.21 -0.06,-0.37 -0.17,-0.49 -0.11,-0.12 -0.25,-0.18 -0.44,-0.18 -0.18,0 -0.33,0.06 -0.44,0.18 -0.11,0.12 -0.16,0.28 -0.16,0.49l0 1.71 -0.97 0 0 -4.18 0.97 0 0 1.45c0.1,-0.13 0.23,-0.25 0.4,-0.33 0.17,-0.08 0.36,-0.12 0.57,-0.12z"/>
  </g>
 </g>
</svg>
