<?xml version="1.0" encoding="UTF-8"?>
<!DOCTYPE svg PUBLIC "-//W3C//DTD SVG 1.0//EN" "http://www.w3.org/TR/2001/REC-SVG-20010904/DTD/svg10.dtd">
<!-- Creator: CorelDRAW 2018 -->
<svg xmlns="http://www.w3.org/2000/svg" xml:space="preserve" width="152px" height="43px" version="1.0" style="shape-rendering:geometricPrecision; text-rendering:geometricPrecision; image-rendering:optimizeQuality; fill-rule:evenodd; clip-rule:evenodd"
viewBox="0 0 14.49 4.12"
 xmlns:xlink="http://www.w3.org/1999/xlink">
 <defs>
  <style type="text/css">
   <![CDATA[
    .fil0 {fill:#005EFF}
    .fil2 {fill:#272536;fill-rule:nonzero}
    .fil1 {fill:url(#id0);fill-rule:nonzero}
   ]]>
  </style>
  <linearGradient id="id0" gradientUnits="objectBoundingBox" x1="49.4943%" y1="0%" x2="50.5066%" y2="100.161%">
   <stop offset="0" style="stop-opacity:1; stop-color:#FEFEFE"/>
   <stop offset="0.788235" style="stop-opacity:1; stop-color:#DFDDED"/>
   <stop offset="1" style="stop-opacity:1; stop-color:#C0BCDB"/>
  </linearGradient>
 </defs>
 <g id="Layer_x0020_1">
  <metadata id="CorelCorpID_0Corel-Layer"/>
  <g id="_715258336">
   <g>
    <path class="fil0" d="M14.42 0.4c0.01,0.06 0.03,0.13 0.04,0.21 0.01,0.08 0.02,0.16 0.02,0.24 0.01,0.07 0.01,0.15 0.01,0.21 0,0.07 0,0.13 0,0.17l0 0.06c0,0.41 -0.02,0.71 -0.07,0.9 -0.02,0.08 -0.06,0.14 -0.12,0.2 -0.06,0.06 -0.13,0.1 -0.21,0.12 -0.09,0.03 -0.25,0.04 -0.49,0.05 -0.23,0.02 -3.53,0.03 -3.73,0.03l-0.3 0c-0.77,0 -1.24,-0.03 -1.43,-0.08 -0.18,-0.05 -0.29,-0.15 -0.33,-0.32 -0.03,-0.09 -0.04,-0.2 -0.05,-0.35 -0.01,-0.15 -0.02,-0.28 -0.03,-0.38l0 -0.17c0,-0.4 0.03,-0.69 0.08,-0.89 0.02,-0.08 0.06,-0.15 0.12,-0.2 0.06,-0.06 0.13,-0.1 0.21,-0.13 0.08,-0.02 0.24,-0.03 0.48,-0.05 0.24,-0.01 0.46,-0.02 0.66,-0.02l0.29 0c0.77,0 4.33,0.02 4.52,0.07 0.08,0.03 0.15,0.07 0.21,0.13 0.06,0.05 0.1,0.12 0.12,0.2z"/>
    <polygon class="fil1" points="9.48,2.01 8.96,1.32 8.96,2.01 8.58,2.01 8.58,0.45 8.96,0.45 8.96,1.13 9.48,0.45 9.93,0.45 9.32,1.21 9.95,2.01 "/>
    <path id="1" class="fil1" d="M10.46 0.97c0.04,-0.06 0.1,-0.12 0.16,-0.16 0.07,-0.04 0.14,-0.06 0.23,-0.06l0 0.41 -0.11 0c-0.09,0 -0.17,0.02 -0.21,0.06 -0.05,0.04 -0.07,0.11 -0.07,0.21l0 0.58 -0.39 0 0 -1.24 0.39 0 0 0.2z"/>
    <path id="2" class="fil1" d="M12.2 0.77l0 1.24 -0.38 0 0 -0.17c-0.04,0.06 -0.09,0.1 -0.16,0.13 -0.06,0.04 -0.14,0.05 -0.22,0.05 -0.09,0 -0.18,-0.02 -0.25,-0.06 -0.07,-0.04 -0.13,-0.1 -0.17,-0.18 -0.04,-0.08 -0.06,-0.18 -0.06,-0.29l0 -0.72 0.38 0 0 0.67c0,0.09 0.02,0.15 0.06,0.2 0.05,0.04 0.11,0.07 0.18,0.07 0.07,0 0.13,-0.03 0.18,-0.07 0.04,-0.05 0.06,-0.11 0.06,-0.2l0 -0.67 0.38 0z"/>
    <polygon id="3" class="fil1" points="12.78,1.7 13.32,1.7 13.32,2.01 12.35,2.01 12.35,1.71 12.87,1.08 12.35,1.08 12.35,0.77 13.3,0.77 13.3,1.07 "/>
    <path class="fil2" d="M0.67 2.1c-0.12,0 -0.23,-0.02 -0.34,-0.06 -0.1,-0.04 -0.18,-0.1 -0.24,-0.18 -0.06,-0.08 -0.09,-0.18 -0.09,-0.29l0.45 0c0,0.06 0.03,0.11 0.06,0.15 0.04,0.03 0.09,0.05 0.15,0.05 0.07,0 0.11,-0.02 0.15,-0.05 0.04,-0.03 0.05,-0.07 0.05,-0.12 0,-0.04 -0.01,-0.07 -0.04,-0.1 -0.03,-0.03 -0.06,-0.05 -0.1,-0.07 -0.05,-0.02 -0.11,-0.04 -0.18,-0.06 -0.11,-0.04 -0.21,-0.07 -0.28,-0.11 -0.07,-0.03 -0.13,-0.08 -0.18,-0.15 -0.05,-0.07 -0.08,-0.15 -0.08,-0.26 0,-0.16 0.06,-0.29 0.18,-0.38 0.12,-0.09 0.27,-0.14 0.46,-0.14 0.19,0 0.34,0.05 0.46,0.14 0.11,0.09 0.18,0.22 0.18,0.38l-0.45 0c-0.01,-0.06 -0.03,-0.1 -0.06,-0.13 -0.04,-0.03 -0.09,-0.05 -0.15,-0.05 -0.05,0 -0.09,0.01 -0.12,0.04 -0.03,0.03 -0.05,0.07 -0.05,0.12 0,0.05 0.03,0.1 0.08,0.13 0.05,0.03 0.13,0.06 0.25,0.1 0.11,0.04 0.2,0.07 0.27,0.11 0.07,0.03 0.13,0.08 0.18,0.15 0.05,0.06 0.08,0.15 0.08,0.25 0,0.1 -0.03,0.19 -0.08,0.27 -0.05,0.08 -0.12,0.14 -0.22,0.19 -0.09,0.05 -0.21,0.07 -0.34,0.07z"/>
    <path id="1" class="fil2" d="M3.26 0.7c0.17,0 0.3,0.05 0.4,0.15 0.1,0.11 0.16,0.25 0.16,0.43l0 0.81 -0.42 0 0 -0.75c0,-0.09 -0.03,-0.16 -0.07,-0.21 -0.05,-0.04 -0.12,-0.07 -0.2,-0.07 -0.08,0 -0.14,0.03 -0.19,0.07 -0.05,0.05 -0.07,0.12 -0.07,0.21l0 0.75 -0.42 0 0 -0.75c0,-0.09 -0.02,-0.16 -0.07,-0.21 -0.05,-0.04 -0.11,-0.07 -0.19,-0.07 -0.09,0 -0.15,0.03 -0.2,0.07 -0.04,0.05 -0.07,0.12 -0.07,0.21l0 0.75 -0.42 0 0 -1.38 0.42 0 0 0.17c0.05,-0.05 0.1,-0.1 0.17,-0.13 0.07,-0.04 0.15,-0.05 0.23,-0.05 0.11,0 0.2,0.02 0.28,0.06 0.08,0.05 0.15,0.11 0.19,0.19 0.05,-0.07 0.12,-0.13 0.2,-0.18 0.08,-0.05 0.17,-0.07 0.27,-0.07z"/>
    <path id="2" class="fil2" d="M4.26 0.57c-0.07,0 -0.13,-0.02 -0.18,-0.07 -0.05,-0.04 -0.07,-0.09 -0.07,-0.16 0,-0.06 0.02,-0.12 0.07,-0.16 0.05,-0.04 0.11,-0.07 0.18,-0.07 0.07,0 0.13,0.03 0.18,0.07 0.05,0.04 0.07,0.1 0.07,0.16 0,0.07 -0.02,0.12 -0.07,0.16 -0.05,0.05 -0.11,0.07 -0.18,0.07zm0.21 0.14l0 1.38 -0.42 0 0 -1.38 0.42 0z"/>
    <path id="3" class="fil2" d="M5.48 1.73l0 0.36 -0.22 0c-0.15,0 -0.27,-0.04 -0.35,-0.12 -0.09,-0.07 -0.13,-0.19 -0.13,-0.36l0 -0.55 -0.17 0 0 -0.35 0.17 0 0 -0.33 0.42 0 0 0.33 0.28 0 0 0.35 -0.28 0 0 0.55c0,0.04 0.01,0.07 0.03,0.09 0.02,0.02 0.05,0.03 0.1,0.03l0.15 0z"/>
    <path id="4" class="fil2" d="M6.5 0.7c0.15,0 0.28,0.05 0.38,0.15 0.09,0.11 0.14,0.25 0.14,0.43l0 0.81 -0.42 0 0 -0.75c0,-0.09 -0.02,-0.16 -0.07,-0.21 -0.05,-0.06 -0.11,-0.08 -0.19,-0.08 -0.08,0 -0.15,0.02 -0.2,0.08 -0.04,0.05 -0.07,0.12 -0.07,0.21l0 0.75 -0.42 0 0 -1.83 0.42 0 0 0.64c0.04,-0.06 0.1,-0.11 0.18,-0.15 0.07,-0.03 0.15,-0.05 0.25,-0.05z"/>
   </g>
   <path class="fil2" d="M0.18 3.38l0 0.36c0,0.03 0.01,0.05 0.02,0.06 0.01,0.01 0.04,0.02 0.07,0.02l0.07 0 0 0.08 -0.09 0c-0.06,0 -0.1,-0.01 -0.13,-0.04 -0.03,-0.02 -0.04,-0.06 -0.04,-0.12l0 -0.36 -0.08 0 0 -0.09 0.08 0 0 -0.15 0.1 0 0 0.15 0.16 0 0 0.09 -0.16 0z"/>
   <polygon id="1" class="fil2" points="1.24,3.29 1.05,3.9 0.95,3.9 0.8,3.42 0.65,3.9 0.55,3.9 0.36,3.29 0.46,3.29 0.6,3.81 0.75,3.29 0.85,3.29 1,3.81 1.14,3.29 "/>
   <path id="2" class="fil2" d="M1.36 3.19c-0.02,0 -0.04,0 -0.05,-0.02 -0.02,-0.01 -0.02,-0.03 -0.02,-0.04 0,-0.02 0,-0.04 0.02,-0.05 0.01,-0.02 0.03,-0.02 0.05,-0.02 0.02,0 0.03,0 0.04,0.02 0.02,0.01 0.02,0.03 0.02,0.05 0,0.01 0,0.03 -0.02,0.04 -0.01,0.02 -0.02,0.02 -0.04,0.02zm0.05 0.1l0 0.61 -0.11 0 0 -0.61 0.11 0z"/>
   <path id="3" class="fil2" d="M1.67 3.38l0 0.36c0,0.03 0,0.05 0.02,0.06 0.01,0.01 0.03,0.02 0.06,0.02l0.08 0 0 0.08 -0.1 0c-0.05,0 -0.09,-0.01 -0.12,-0.04 -0.03,-0.02 -0.04,-0.06 -0.04,-0.12l0 -0.36 -0.08 0 0 -0.09 0.08 0 0 -0.15 0.1 0 0 0.15 0.16 0 0 0.09 -0.16 0z"/>
   <path id="4" class="fil2" d="M2.04 3.38l0 0.36c0,0.03 0,0.05 0.01,0.06 0.02,0.01 0.04,0.02 0.07,0.02l0.08 0 0 0.08 -0.1 0c-0.05,0 -0.09,-0.01 -0.12,-0.04 -0.03,-0.02 -0.05,-0.06 -0.05,-0.12l0 -0.36 -0.07 0 0 -0.09 0.07 0 0 -0.15 0.11 0 0 0.15 0.16 0 0 0.09 -0.16 0z"/>
   <path id="5" class="fil2" d="M2.84 3.58c0,0.01 0,0.03 -0.01,0.06l-0.48 0c0,0.06 0.02,0.1 0.06,0.14 0.04,0.03 0.08,0.05 0.14,0.05 0.04,0 0.08,-0.01 0.11,-0.03 0.02,-0.02 0.05,-0.05 0.06,-0.08l0.11 0c-0.02,0.05 -0.05,0.1 -0.1,0.14 -0.05,0.03 -0.11,0.05 -0.18,0.05 -0.06,0 -0.11,-0.01 -0.16,-0.04 -0.05,-0.02 -0.08,-0.06 -0.11,-0.11 -0.02,-0.04 -0.04,-0.1 -0.04,-0.16 0,-0.07 0.02,-0.12 0.04,-0.17 0.03,-0.05 0.06,-0.08 0.11,-0.11 0.04,-0.02 0.1,-0.04 0.16,-0.04 0.05,0 0.1,0.02 0.15,0.04 0.04,0.03 0.08,0.06 0.1,0.11 0.03,0.04 0.04,0.09 0.04,0.15zm-0.11 -0.03c0,-0.03 0,-0.07 -0.02,-0.1 -0.02,-0.02 -0.04,-0.04 -0.07,-0.06 -0.03,-0.01 -0.06,-0.02 -0.1,-0.02 -0.05,0 -0.09,0.02 -0.13,0.05 -0.04,0.03 -0.06,0.08 -0.06,0.13l0.38 0z"/>
   <path id="6" class="fil2" d="M3.04 3.39c0.02,-0.03 0.04,-0.06 0.07,-0.08 0.04,-0.02 0.08,-0.03 0.12,-0.03l0 0.11 -0.02 0c-0.12,0 -0.17,0.06 -0.17,0.18l0 0.33 -0.1 0 0 -0.61 0.1 0 0 0.1z"/>
   <path id="7" class="fil2" d="M3.87 3.19c0.08,0 0.16,0.02 0.22,0.05 0.06,0.03 0.1,0.07 0.14,0.13 0.03,0.05 0.05,0.12 0.05,0.19 0,0.06 -0.01,0.12 -0.03,0.17 -0.02,0.05 -0.05,0.1 -0.09,0.13 -0.03,0.03 -0.08,0.05 -0.13,0.05 -0.03,0 -0.06,-0.01 -0.08,-0.03 -0.02,-0.02 -0.03,-0.04 -0.04,-0.07 -0.02,0.03 -0.05,0.05 -0.08,0.07 -0.04,0.02 -0.08,0.03 -0.11,0.03 -0.06,0 -0.11,-0.02 -0.14,-0.05 -0.03,-0.04 -0.05,-0.08 -0.05,-0.14 0,-0.06 0.02,-0.11 0.04,-0.16 0.02,-0.04 0.05,-0.08 0.1,-0.11 0.04,-0.03 0.08,-0.05 0.14,-0.05 0.07,0 0.12,0.03 0.14,0.08l0.01 -0.07 0.09 0 -0.06 0.33c0,0.01 0,0.02 0,0.04 0,0.04 0.02,0.06 0.06,0.06 0.03,0 0.06,-0.01 0.08,-0.04 0.02,-0.03 0.04,-0.06 0.05,-0.11 0.01,-0.04 0.01,-0.08 0.01,-0.12 0,-0.1 -0.03,-0.18 -0.08,-0.23 -0.06,-0.05 -0.14,-0.08 -0.25,-0.08 -0.09,0 -0.17,0.02 -0.24,0.07 -0.07,0.04 -0.13,0.1 -0.17,0.17 -0.04,0.07 -0.06,0.16 -0.06,0.25 0,0.09 0.03,0.17 0.09,0.22 0.06,0.06 0.14,0.08 0.25,0.08 0.07,0 0.13,-0.01 0.18,-0.04l0.02 0.07c-0.07,0.03 -0.14,0.04 -0.22,0.04 -0.08,0 -0.15,-0.01 -0.21,-0.04 -0.06,-0.03 -0.11,-0.07 -0.14,-0.13 -0.03,-0.06 -0.05,-0.12 -0.05,-0.19 0,-0.11 0.02,-0.2 0.07,-0.29 0.05,-0.09 0.12,-0.16 0.2,-0.21 0.09,-0.05 0.19,-0.07 0.29,-0.07zm-0.12 0.64c0.03,0 0.06,-0.01 0.09,-0.03 0.03,-0.02 0.05,-0.04 0.06,-0.08 0.02,-0.03 0.03,-0.07 0.03,-0.11 0,-0.04 -0.01,-0.07 -0.03,-0.09 -0.02,-0.03 -0.05,-0.04 -0.09,-0.04 -0.04,0 -0.07,0.01 -0.1,0.03 -0.02,0.02 -0.04,0.05 -0.06,0.09 -0.01,0.03 -0.02,0.07 -0.02,0.1 0,0.04 0.01,0.07 0.03,0.1 0.02,0.02 0.05,0.03 0.09,0.03z"/>
   <path id="8" class="fil2" d="M4.62 3.91c-0.04,0 -0.09,0 -0.12,-0.02 -0.04,-0.02 -0.07,-0.04 -0.09,-0.07 -0.02,-0.03 -0.03,-0.06 -0.04,-0.1l0.11 0c0,0.03 0.02,0.06 0.04,0.08 0.03,0.02 0.06,0.03 0.1,0.03 0.04,0 0.07,-0.01 0.09,-0.03 0.03,-0.02 0.04,-0.04 0.04,-0.06 0,-0.03 -0.02,-0.05 -0.04,-0.06 -0.02,-0.02 -0.06,-0.03 -0.11,-0.04 -0.04,-0.01 -0.08,-0.02 -0.11,-0.04 -0.03,-0.01 -0.05,-0.03 -0.07,-0.05 -0.02,-0.03 -0.03,-0.06 -0.03,-0.1 0,-0.03 0.01,-0.06 0.02,-0.08 0.02,-0.03 0.05,-0.05 0.08,-0.06 0.04,-0.02 0.08,-0.03 0.12,-0.03 0.07,0 0.12,0.02 0.16,0.05 0.04,0.04 0.07,0.09 0.07,0.14l-0.1 0c0,-0.03 -0.02,-0.05 -0.04,-0.07 -0.02,-0.02 -0.05,-0.03 -0.09,-0.03 -0.04,0 -0.07,0.01 -0.09,0.02 -0.02,0.02 -0.03,0.04 -0.03,0.06 0,0.02 0,0.04 0.02,0.05 0.01,0.02 0.03,0.03 0.05,0.03 0.02,0.01 0.04,0.02 0.08,0.03 0.04,0.01 0.08,0.02 0.1,0.04 0.03,0.01 0.06,0.02 0.08,0.05 0.01,0.02 0.02,0.05 0.03,0.09 0,0.03 -0.01,0.06 -0.03,0.09 -0.02,0.02 -0.05,0.05 -0.08,0.06 -0.03,0.02 -0.07,0.02 -0.12,0.02z"/>
   <path id="9" class="fil2" d="M4.91 3.6c0,-0.07 0.02,-0.12 0.04,-0.17 0.03,-0.05 0.06,-0.08 0.11,-0.11 0.04,-0.02 0.09,-0.04 0.14,-0.04 0.06,0 0.1,0.02 0.14,0.04 0.04,0.02 0.07,0.05 0.09,0.08l0 -0.11 0.1 0 0 0.61 -0.1 0 0 -0.11c-0.02,0.04 -0.05,0.06 -0.09,0.09 -0.04,0.02 -0.08,0.03 -0.14,0.03 -0.05,0 -0.1,-0.01 -0.14,-0.04 -0.05,-0.02 -0.08,-0.06 -0.11,-0.11 -0.02,-0.05 -0.04,-0.1 -0.04,-0.16zm0.52 0c0,-0.05 -0.01,-0.09 -0.03,-0.12 -0.02,-0.04 -0.04,-0.06 -0.07,-0.08 -0.03,-0.02 -0.07,-0.03 -0.11,-0.03 -0.03,0 -0.07,0.01 -0.1,0.03 -0.03,0.02 -0.06,0.04 -0.07,0.08 -0.02,0.03 -0.03,0.07 -0.03,0.12 0,0.04 0.01,0.08 0.03,0.12 0.01,0.03 0.04,0.06 0.07,0.08 0.03,0.02 0.07,0.02 0.1,0.02 0.04,0 0.08,0 0.11,-0.02 0.03,-0.02 0.05,-0.05 0.07,-0.08 0.02,-0.04 0.03,-0.08 0.03,-0.12z"/>
   <path id="10" class="fil2" d="M6.4 3.28c0.05,0 0.09,0.01 0.13,0.03 0.04,0.02 0.07,0.05 0.09,0.09 0.02,0.04 0.03,0.09 0.03,0.14l0 0.36 -0.1 0 0 -0.34c0,-0.06 -0.02,-0.11 -0.05,-0.14 -0.03,-0.03 -0.07,-0.05 -0.12,-0.05 -0.05,0 -0.09,0.02 -0.12,0.05 -0.03,0.03 -0.05,0.08 -0.05,0.15l0 0.33 -0.1 0 0 -0.34c0,-0.06 -0.02,-0.11 -0.05,-0.14 -0.03,-0.03 -0.07,-0.05 -0.12,-0.05 -0.05,0 -0.09,0.02 -0.12,0.05 -0.03,0.03 -0.05,0.08 -0.05,0.15l0 0.33 -0.1 0 0 -0.61 0.1 0 0 0.09c0.02,-0.03 0.05,-0.05 0.08,-0.07 0.03,-0.02 0.07,-0.03 0.11,-0.03 0.05,0 0.1,0.01 0.14,0.04 0.04,0.02 0.07,0.05 0.09,0.1 0.01,-0.04 0.04,-0.08 0.08,-0.1 0.04,-0.03 0.08,-0.04 0.13,-0.04z"/>
   <path id="11" class="fil2" d="M7 3.91c-0.05,0 -0.09,0 -0.13,-0.02 -0.04,-0.02 -0.07,-0.04 -0.09,-0.07 -0.02,-0.03 -0.03,-0.06 -0.03,-0.1l0.1 0c0,0.03 0.02,0.06 0.04,0.08 0.03,0.02 0.06,0.03 0.1,0.03 0.04,0 0.07,-0.01 0.1,-0.03 0.02,-0.02 0.03,-0.04 0.03,-0.06 0,-0.03 -0.01,-0.05 -0.04,-0.06 -0.02,-0.02 -0.06,-0.03 -0.11,-0.04 -0.04,-0.01 -0.08,-0.02 -0.11,-0.04 -0.03,-0.01 -0.05,-0.03 -0.07,-0.05 -0.02,-0.03 -0.03,-0.06 -0.03,-0.1 0,-0.03 0.01,-0.06 0.03,-0.08 0.01,-0.03 0.04,-0.05 0.08,-0.06 0.03,-0.02 0.07,-0.03 0.11,-0.03 0.07,0 0.12,0.02 0.17,0.05 0.04,0.04 0.06,0.09 0.06,0.14l-0.1 0c0,-0.03 -0.01,-0.05 -0.04,-0.07 -0.02,-0.02 -0.05,-0.03 -0.09,-0.03 -0.04,0 -0.07,0.01 -0.09,0.02 -0.02,0.02 -0.03,0.04 -0.03,0.06 0,0.02 0.01,0.04 0.02,0.05 0.01,0.02 0.03,0.03 0.05,0.03 0.02,0.01 0.05,0.02 0.08,0.03 0.04,0.01 0.08,0.02 0.11,0.04 0.02,0.01 0.05,0.02 0.07,0.05 0.02,0.02 0.03,0.05 0.03,0.09 0,0.03 -0.01,0.06 -0.03,0.09 -0.02,0.02 -0.04,0.05 -0.08,0.06 -0.03,0.02 -0.07,0.02 -0.11,0.02z"/>
   <path id="12" class="fil2" d="M8.06 3.28c0.05,0 0.09,0.01 0.13,0.03 0.03,0.02 0.06,0.05 0.08,0.09 0.02,0.04 0.04,0.09 0.04,0.14l0 0.36 -0.1 0 0 -0.34c0,-0.06 -0.02,-0.11 -0.05,-0.14 -0.03,-0.03 -0.07,-0.05 -0.12,-0.05 -0.05,0 -0.1,0.02 -0.13,0.05 -0.03,0.03 -0.04,0.08 -0.04,0.15l0 0.33 -0.1 0 0 -0.34c0,-0.06 -0.02,-0.11 -0.05,-0.14 -0.03,-0.03 -0.07,-0.05 -0.12,-0.05 -0.05,0 -0.1,0.02 -0.13,0.05 -0.03,0.03 -0.04,0.08 -0.04,0.15l0 0.33 -0.1 0 0 -0.61 0.1 0 0 0.09c0.02,-0.03 0.04,-0.05 0.08,-0.07 0.03,-0.02 0.07,-0.03 0.11,-0.03 0.05,0 0.1,0.01 0.13,0.04 0.04,0.02 0.07,0.05 0.09,0.1 0.02,-0.04 0.05,-0.08 0.09,-0.1 0.04,-0.03 0.08,-0.04 0.13,-0.04z"/>
   <path id="13" class="fil2" d="M8.49 3.19c-0.02,0 -0.04,0 -0.05,-0.02 -0.01,-0.01 -0.02,-0.03 -0.02,-0.04 0,-0.02 0.01,-0.04 0.02,-0.05 0.01,-0.02 0.03,-0.02 0.05,-0.02 0.02,0 0.03,0 0.05,0.02 0.01,0.01 0.01,0.03 0.01,0.05 0,0.01 0,0.03 -0.01,0.04 -0.02,0.02 -0.03,0.02 -0.05,0.02zm0.05 0.1l0 0.61 -0.1 0 0 -0.61 0.1 0z"/>
   <path id="14" class="fil2" d="M8.8 3.38l0 0.36c0,0.03 0,0.05 0.02,0.06 0.01,0.01 0.03,0.02 0.06,0.02l0.08 0 0 0.08 -0.09 0c-0.06,0 -0.1,-0.01 -0.13,-0.04 -0.03,-0.02 -0.04,-0.06 -0.04,-0.12l0 -0.36 -0.08 0 0 -0.09 0.08 0 0 -0.15 0.1 0 0 0.15 0.16 0 0 0.09 -0.16 0z"/>
   <path id="15" class="fil2" d="M9.35 3.28c0.04,0 0.08,0.01 0.12,0.03 0.04,0.02 0.07,0.05 0.09,0.09 0.02,0.04 0.03,0.09 0.03,0.14l0 0.36 -0.1 0 0 -0.34c0,-0.06 -0.02,-0.11 -0.05,-0.14 -0.03,-0.03 -0.07,-0.05 -0.12,-0.05 -0.05,0 -0.1,0.02 -0.13,0.05 -0.03,0.03 -0.05,0.08 -0.05,0.15l0 0.33 -0.1 0 0 -0.82 0.1 0 0 0.3c0.02,-0.03 0.05,-0.05 0.09,-0.07 0.03,-0.02 0.07,-0.03 0.12,-0.03z"/>
   <polygon id="16" class="fil2" points="10.34,3.95 10.34,4.04 9.75,4.04 9.75,3.95 "/>
   <polygon id="17" class="fil2" points="10.84,3.9 10.6,3.63 10.6,3.9 10.5,3.9 10.5,3.08 10.6,3.08 10.6,3.56 10.84,3.29 10.98,3.29 10.69,3.6 10.98,3.9 "/>
   <path id="18" class="fil2" d="M11.14 3.39c0.02,-0.03 0.04,-0.06 0.07,-0.08 0.04,-0.02 0.08,-0.03 0.13,-0.03l0 0.11 -0.03 0c-0.11,0 -0.17,0.06 -0.17,0.18l0 0.33 -0.1 0 0 -0.61 0.1 0 0 0.1z"/>
   <path id="19" class="fil2" d="M11.96 3.29l0 0.61 -0.1 0 0 -0.09c-0.02,0.03 -0.05,0.06 -0.08,0.08 -0.04,0.01 -0.08,0.02 -0.12,0.02 -0.05,0 -0.09,-0.01 -0.13,-0.03 -0.03,-0.02 -0.06,-0.05 -0.09,-0.09 -0.02,-0.04 -0.03,-0.08 -0.03,-0.14l0 -0.36 0.1 0 0 0.35c0,0.06 0.02,0.1 0.05,0.14 0.03,0.03 0.07,0.04 0.12,0.04 0.06,0 0.1,-0.01 0.13,-0.05 0.03,-0.03 0.05,-0.08 0.05,-0.14l0 -0.34 0.1 0z"/>
   <polygon id="20" class="fil2" points="12.17,3.82 12.47,3.82 12.47,3.9 12.05,3.9 12.05,3.82 12.35,3.38 12.06,3.38 12.06,3.29 12.47,3.29 12.47,3.38 "/>
  </g>
 </g>
</svg>
